<svg width="153" height="30" viewBox="0 0 153 30" fill="none" xmlns="http://www.w3.org/2000/svg">
<g clip-path="url(#clip0_341_35)">
<path d="M147.709 9.74268C149.294 9.74268 150.568 10.2386 151.531 11.2305C152.511 12.2067 153 13.5764 153 15.3397V23.015H149.737V15.7884C149.737 14.7651 149.481 13.9857 148.968 13.4505C148.455 12.8994 147.756 12.6239 146.87 12.6239C145.985 12.6239 145.278 12.8994 144.749 13.4505C144.237 13.9857 143.98 14.7651 143.98 15.7884V23.015H140.717V15.7884C140.717 14.7651 140.461 13.9857 139.948 13.4505C139.435 12.8994 138.736 12.6239 137.851 12.6239C136.949 12.6239 136.234 12.8994 135.706 13.4505C135.194 13.9857 134.937 14.7651 134.937 15.7884V23.015H131.674V9.9316H134.937V11.5139C135.356 10.9629 135.893 10.5299 136.546 10.215C137.214 9.9001 137.944 9.74268 138.736 9.74268C139.746 9.74268 140.647 9.96303 141.44 10.4039C142.232 10.829 142.846 11.443 143.281 12.2459C143.7 11.4902 144.306 10.8841 145.099 10.4275C145.907 9.9709 146.777 9.74268 147.709 9.74268Z" fill="white"/>
<path d="M129.27 9.93164V23.0151H125.984V21.3619C125.564 21.9287 125.013 22.3774 124.329 22.7081C123.661 23.023 122.931 23.1804 122.138 23.1804C121.129 23.1804 120.235 22.9678 119.458 22.5427C118.681 22.102 118.067 21.4643 117.617 20.6299C117.182 19.7797 116.964 18.772 116.964 17.6069V9.93164H120.227V17.1346C120.227 18.1738 120.483 18.9767 120.996 19.5435C121.509 20.0945 122.209 20.3701 123.094 20.3701C123.995 20.3701 124.702 20.0945 125.215 19.5435C125.728 18.9767 125.984 18.1738 125.984 17.1346V9.93164H129.27Z" fill="white"/>
<path d="M110.137 23.2278C109.081 23.2278 108.133 23.0389 107.294 22.661C106.455 22.2674 105.787 21.7399 105.289 21.0787C104.807 20.4175 104.543 19.6853 104.497 18.8824H107.783C107.845 19.3862 108.086 19.8034 108.506 20.134C108.94 20.4647 109.477 20.63 110.113 20.63C110.735 20.63 111.217 20.504 111.559 20.2522C111.916 20.0002 112.095 19.6774 112.095 19.2838C112.095 18.8587 111.877 18.5439 111.442 18.3392C111.023 18.1188 110.347 17.8826 109.414 17.6307C108.451 17.3945 107.659 17.1505 107.037 16.8986C106.431 16.6467 105.903 16.261 105.452 15.7414C105.017 15.2218 104.8 14.5212 104.8 13.6396C104.8 12.9153 105.002 12.254 105.406 11.6557C105.825 11.0575 106.416 10.5851 107.177 10.2388C107.954 9.89241 108.863 9.71924 109.904 9.71924C111.442 9.71924 112.67 10.1128 113.587 10.9C114.503 11.6715 115.008 12.7185 115.102 14.041H111.978C111.932 13.5214 111.714 13.1121 111.326 12.813C110.953 12.4981 110.447 12.3406 109.811 12.3406C109.221 12.3406 108.762 12.4508 108.436 12.6712C108.125 12.8917 107.969 13.1987 107.969 13.5923C107.969 14.0332 108.187 14.3716 108.622 14.6078C109.057 14.8282 109.733 15.0565 110.65 15.2927C111.582 15.5289 112.351 15.7729 112.958 16.0248C113.563 16.2767 114.084 16.6703 114.519 17.2056C114.969 17.7252 115.202 18.418 115.218 19.2838C115.218 20.0396 115.008 20.7166 114.589 21.3148C114.185 21.9132 113.594 22.3855 112.817 22.7319C112.056 23.0625 111.162 23.2278 110.137 23.2278Z" fill="white"/>
<path d="M93.4786 11.821C93.8984 11.2228 94.4735 10.7269 95.2037 10.3333C95.9495 9.92391 96.7958 9.71924 97.7441 9.71924C98.8469 9.71924 99.8418 9.99471 100.727 10.5458C101.628 11.0968 102.336 11.884 102.849 12.9074C103.376 13.915 103.641 15.088 103.641 16.4263C103.641 17.7646 103.376 18.9532 102.849 19.9924C102.336 21.0157 101.628 21.8108 100.727 22.3776C99.8418 22.9444 98.8469 23.2278 97.7441 23.2278C96.7958 23.2278 95.9569 23.031 95.2266 22.6374C94.5119 22.2438 93.9295 21.7478 93.4786 21.1495V29.25H90.2161V9.93179H93.4786V11.821ZM100.307 16.4263C100.307 15.6391 100.145 14.962 99.8181 14.3953C99.5077 13.8127 99.0878 13.3719 98.5594 13.0727C98.0472 12.7736 97.4876 12.6241 96.8815 12.6241C96.291 12.6241 95.7315 12.7815 95.2037 13.0963C94.6908 13.3955 94.2709 13.8364 93.945 14.4189C93.6338 15.0014 93.4786 15.6863 93.4786 16.4735C93.4786 17.2607 93.6338 17.9456 93.945 18.5281C94.2709 19.1107 94.6908 19.5594 95.2037 19.8742C95.7315 20.1734 96.291 20.323 96.8815 20.323C97.4876 20.323 98.0472 20.1655 98.5594 19.8507C99.0878 19.5358 99.5077 19.087 99.8181 18.5045C100.145 17.922 100.307 17.2292 100.307 16.4263Z" fill="white"/>
<path d="M86.1996 8.37308C85.6245 8.37308 85.1426 8.19203 84.7546 7.82993C84.3813 7.45205 84.1951 6.98759 84.1951 6.43655C84.1951 5.8855 84.3813 5.42891 84.7546 5.06679C85.1426 4.68893 85.6245 4.5 86.1996 4.5C86.7746 4.5 87.2484 4.68893 87.6209 5.06679C88.0097 5.42891 88.2041 5.8855 88.2041 6.43655C88.2041 6.98759 88.0097 7.45205 87.6209 7.82993C87.2484 8.19203 86.7746 8.37308 86.1996 8.37308ZM87.8079 9.9318V23.0153H84.5447V9.9318H87.8079Z" fill="white"/>
<path d="M76.231 23.2278C74.9885 23.2278 73.8694 22.9523 72.8749 22.4012C71.8805 21.8344 71.0958 21.0394 70.5209 20.016C69.9616 18.9926 69.6819 17.8117 69.6819 16.4735C69.6819 15.1352 69.9693 13.9544 70.5442 12.931C71.1346 11.9077 71.9349 11.1205 72.9449 10.5694C73.9552 10.0026 75.0816 9.71924 76.3241 9.71924C77.5673 9.71924 78.6937 10.0026 79.7041 10.5694C80.7138 11.1205 81.5061 11.9077 82.0812 12.931C82.6717 13.9544 82.9666 15.1352 82.9666 16.4735C82.9666 17.8117 82.6636 18.9926 82.0583 20.016C81.4677 21.0394 80.6598 21.8344 79.6339 22.4012C78.6243 22.9523 77.4897 23.2278 76.231 23.2278ZM76.231 20.3466C76.8215 20.3466 77.3729 20.2049 77.8859 19.9215C78.4143 19.6224 78.8334 19.1815 79.1446 18.599C79.455 18.0164 79.611 17.308 79.611 16.4735C79.611 15.2297 79.2843 14.2772 78.6316 13.6159C77.9945 12.9389 77.2103 12.6004 76.2775 12.6004C75.3455 12.6004 74.5605 12.9389 73.9234 13.6159C73.3022 14.2772 72.9915 15.2297 72.9915 16.4735C72.9915 17.7173 73.2945 18.6777 73.9005 19.3547C74.5221 20.016 75.2989 20.3466 76.231 20.3466Z" fill="white"/>
<path d="M62.1842 23.2278C60.9411 23.2278 59.8224 22.9523 58.8279 22.4012C57.8335 21.8344 57.0488 21.0394 56.4739 20.016C55.9146 18.9926 55.6349 17.8117 55.6349 16.4735C55.6349 15.1352 55.9223 13.9544 56.4972 12.931C57.0877 11.9077 57.8879 11.1205 58.8979 10.5694C59.9078 10.0026 61.0343 9.71924 62.2774 9.71924C63.5204 9.71924 64.647 10.0026 65.6569 10.5694C66.6669 11.1205 67.4593 11.9077 68.0342 12.931C68.6247 13.9544 68.9199 15.1352 68.9199 16.4735C68.9199 17.8117 68.6169 18.9926 68.0109 20.016C67.4205 21.0394 66.6125 21.8344 65.587 22.4012C64.577 22.9523 63.4428 23.2278 62.1842 23.2278ZM62.1842 20.3466C62.7746 20.3466 63.3262 20.2049 63.8389 19.9215C64.3673 19.6224 64.7868 19.1815 65.0975 18.599C65.4083 18.0164 65.5637 17.308 65.5637 16.4735C65.5637 15.2297 65.2374 14.2772 64.5848 13.6159C63.9477 12.9389 63.1631 12.6004 62.2307 12.6004C61.2985 12.6004 60.5138 12.9389 59.8768 13.6159C59.2552 14.2772 58.9445 15.2297 58.9445 16.4735C58.9445 17.7173 59.2475 18.6777 59.8535 19.3547C60.4749 20.016 61.2518 20.3466 62.1842 20.3466Z" fill="white"/>
<path d="M48.1371 23.2278C46.894 23.2278 45.7753 22.9523 44.7809 22.4012C43.7864 21.8344 43.0018 21.0394 42.4269 20.016C41.8675 18.9926 41.5878 17.8117 41.5878 16.4735C41.5878 15.1352 41.8753 13.9544 42.4502 12.931C43.0406 11.9077 43.8408 11.1205 44.8508 10.5694C45.8607 10.0026 46.9873 9.71924 48.2303 9.71924C49.4734 9.71924 50.5999 10.0026 51.6098 10.5694C52.6198 11.1205 53.4122 11.9077 53.9872 12.931C54.5776 13.9544 54.8728 15.1352 54.8728 16.4735C54.8728 17.8117 54.5698 18.9926 53.9638 20.016C53.3734 21.0394 52.5654 21.8344 51.5399 22.4012C50.53 22.9523 49.3957 23.2278 48.1371 23.2278ZM48.1371 20.3466C48.7275 20.3466 49.2791 20.2049 49.7919 19.9215C50.3202 19.6224 50.7397 19.1815 51.0505 18.599C51.3612 18.0164 51.5166 17.308 51.5166 16.4735C51.5166 15.2297 51.1903 14.2772 50.5377 13.6159C49.9007 12.9389 49.116 12.6004 48.1837 12.6004C47.2514 12.6004 46.4668 12.9389 45.8297 13.6159C45.2082 14.2772 44.8974 15.2297 44.8974 16.4735C44.8974 17.7173 45.2004 18.6777 45.8064 19.3547C46.4279 20.016 47.2048 20.3466 48.1371 20.3466Z" fill="white"/>
<path d="M35.7847 20.3936H41.1453V23.015H32.5217V6.53076H35.7847V20.3936Z" fill="white"/>
<path d="M56.4958 24.7725C57.3223 27.2631 59.6454 29.0571 62.3819 29.0571H62.7225C66.1514 29.0571 68.9311 26.2406 68.9311 22.7661V22.4106H65.5651V22.7661C65.5651 24.3569 64.2924 25.6465 62.7225 25.6465H62.3819C61.5818 25.6465 60.859 25.3116 60.3424 24.7725H56.4958Z" fill="white"/>
<path d="M11.087 0L15.1185 4L0 19V11L11.087 0Z" fill="white"/>
<path d="M2.14959 21.1327L11.087 30L22.1739 19V11L15.1185 4L0 19L0.00308129 19.0031L15.1185 4V15.5L8.31522 22.25V15.0993L2.14959 21.1327Z" fill="white"/>
</g>
<defs>
<clipPath id="clip0_341_35">
<rect width="153" height="30" fill="white"/>
</clipPath>
</defs>
</svg>
