<svg width="32" height="32" viewBox="0 0 32 32" fill="none" xmlns="http://www.w3.org/2000/svg">
<g clip-path="url(#clip0_815_21)">
<path fill-rule="evenodd" clip-rule="evenodd" d="M10.9717 0.402832C9.16656 0.402832 7.43544 1.10241 6.15905 2.34767L0 8.35646V11.1069C0 13.0501 0.855552 14.7983 2.21921 16.0126C0.855552 17.2269 0 18.9751 0 20.9183V23.6687L6.15905 29.6775C7.43544 30.9228 9.16656 31.6223 10.9717 31.6223C12.9634 31.6223 14.7554 30.7877 16 29.4573C17.2446 30.7877 19.0366 31.6223 21.0283 31.6223C22.8334 31.6223 24.5646 30.9228 25.841 29.6775L32 23.6687V20.9183C32 18.9751 31.1445 17.2269 29.7808 16.0126C31.1445 14.7983 32 13.0501 32 11.1069V8.35646L25.841 2.34767C24.5646 1.10241 22.8334 0.402832 21.0283 0.402832C19.0366 0.402832 17.2446 1.23751 16 2.56791C14.7554 1.23751 12.9634 0.402832 10.9717 0.402832ZM20.607 16.0126C20.5303 15.9443 20.455 15.8741 20.3813 15.8022L16 11.5277L11.6187 15.8022C11.545 15.8741 11.4697 15.9443 11.393 16.0126C11.4697 16.0809 11.545 16.151 11.6187 16.223L16 20.4974L20.3813 16.223C20.455 16.151 20.5303 16.0809 20.607 16.0126ZM17.7778 23.6687V24.9823C17.7778 26.7337 19.2331 28.1535 21.0283 28.1535C21.8904 28.1535 22.7172 27.8194 23.3268 27.2247L28.4445 22.2318V20.9183C28.4445 19.1668 26.9891 17.747 25.1939 17.747C24.3318 17.747 23.505 18.0811 22.8954 18.6758L17.7778 23.6687ZM14.2222 23.6687L9.10456 18.6758C8.49496 18.0811 7.66819 17.747 6.8061 17.747C5.01087 17.747 3.55555 19.1668 3.55555 20.9183V22.2318L8.6732 27.2247C9.2828 27.8194 10.1096 28.1535 10.9717 28.1535C12.7669 28.1535 14.2222 26.7337 14.2222 24.9823V23.6687ZM14.2222 7.04292V8.35646L9.10456 13.3493C8.49496 13.9441 7.66819 14.2782 6.8061 14.2782C5.01087 14.2782 3.55555 12.8583 3.55555 11.1069V9.79334L8.6732 4.8005C9.2828 4.20578 10.1096 3.87167 10.9717 3.87167C12.7669 3.87167 14.2222 5.29149 14.2222 7.04292ZM22.8954 13.3493L17.7778 8.35646V7.04292C17.7778 5.29149 19.2331 3.87167 21.0283 3.87167C21.8904 3.87167 22.7172 4.20578 23.3268 4.8005L28.4445 9.79334V11.1069C28.4445 12.8583 26.9891 14.2782 25.1939 14.2782C24.3318 14.2782 23.505 13.9441 22.8954 13.3493Z" fill="black"/>
</g>
<defs>
<clipPath id="clip0_815_21">
<rect width="32" height="32" fill="white"/>
</clipPath>
</defs>
</svg>
