<svg width="101" height="36" viewBox="0 0 101 36" fill="none" xmlns="http://www.w3.org/2000/svg">
<path d="M0.550781 35V0.625H14.3008V7.32422H7.46484V12.793H13.9492V19.4141H7.46484V35H0.550781ZM17.2102 35V0.625H24.3195V35H17.2102ZM33.5766 35.3125C32.0141 35.3125 30.8161 34.987 29.9828 34.3359C29.1625 33.6849 28.6026 32.7799 28.3031 31.6211C28.0036 30.4492 27.8539 29.082 27.8539 27.5195V5.70312H34.8852V26.6992C34.8852 27.8711 34.9763 28.6914 35.1586 29.1602C35.3409 29.6159 35.7706 29.8438 36.4477 29.8438C37.1768 29.8438 37.6326 29.5182 37.8148 28.8672C38.0102 28.2161 38.1078 27.3763 38.1078 26.3477V5.70312H45.0805V35H38.0883V31.875C37.6456 32.9948 37.1117 33.8477 36.4867 34.4336C35.8747 35.0195 34.9047 35.3125 33.5766 35.3125ZM57.2086 35.3125C51.3753 35.3125 48.4586 32.2852 48.4586 26.2305V14.4727C48.4586 11.7122 49.2333 9.51172 50.7828 7.87109C52.3323 6.21745 54.4742 5.39062 57.2086 5.39062C59.956 5.39062 62.1044 6.21745 63.6539 7.87109C65.2034 9.51172 65.9781 11.7122 65.9781 14.4727V26.2305C65.9781 32.2852 63.0549 35.3125 57.2086 35.3125ZM57.2086 29.9219C57.7945 29.9219 58.2112 29.7135 58.4586 29.2969C58.719 28.8672 58.8492 28.3268 58.8492 27.6758V13.3594C58.8492 11.6536 58.3023 10.8008 57.2086 10.8008C56.1148 10.8008 55.568 11.6536 55.568 13.3594V27.6758C55.568 28.3268 55.6917 28.8672 55.9391 29.2969C56.1995 29.7135 56.6227 29.9219 57.2086 29.9219ZM69.3758 35V5.70312H76.4852V8.96484C76.8237 7.83203 77.4227 6.94661 78.282 6.30859C79.1414 5.67057 80.2221 5.35156 81.5242 5.35156V11.1914C80.9513 11.1914 80.2677 11.2565 79.4734 11.3867C78.6792 11.5039 77.9825 11.6732 77.3836 11.8945C76.7846 12.1029 76.4852 12.3372 76.4852 12.5977V35H69.3758ZM89.375 35.3125C87.7474 35.3125 86.5039 34.9349 85.6445 34.1797C84.7982 33.4245 84.2188 32.3893 83.9062 31.0742C83.5938 29.7591 83.4375 28.2682 83.4375 26.6016C83.4375 24.8177 83.6133 23.3594 83.9648 22.2266C84.3164 21.0807 84.9154 20.1432 85.7617 19.4141C86.6211 18.6849 87.7995 18.0664 89.2969 17.5586L93.6328 16.0742V13.0664C93.6328 11.4909 93.1185 10.7031 92.0898 10.7031C91.1523 10.7031 90.6836 11.3411 90.6836 12.6172V14.375H83.8867C83.8737 14.2708 83.8672 14.1406 83.8672 13.9844C83.8672 13.8151 83.8672 13.6263 83.8672 13.418C83.8672 10.5013 84.5508 8.4375 85.918 7.22656C87.2982 6.0026 89.4792 5.39062 92.4609 5.39062C94.0234 5.39062 95.4232 5.67057 96.6602 6.23047C97.8971 6.77734 98.8737 7.59115 99.5898 8.67188C100.319 9.7526 100.684 11.0872 100.684 12.6758V35H93.7305V31.5234C93.3919 32.7474 92.832 33.6849 92.0508 34.3359C91.2695 34.987 90.3776 35.3125 89.375 35.3125ZM92.1289 29.8828C92.7018 29.8828 93.0924 29.6419 93.3008 29.1602C93.5091 28.6784 93.6133 28.1576 93.6133 27.5977V19.4336C92.6497 19.8242 91.901 20.319 91.3672 20.918C90.8333 21.5039 90.5664 22.3698 90.5664 23.5156V27.2852C90.5664 29.0169 91.0872 29.8828 92.1289 29.8828Z" fill="white"/>
</svg>
