<svg width="256" height="256" viewBox="0 0 256 256" fill="none" xmlns="http://www.w3.org/2000/svg">
<path fill-rule="evenodd" clip-rule="evenodd" d="M87.7734 3.22266C73.3325 3.22266 59.4835 8.8193 49.2724 18.7814L0 66.8517V88.8552C0 104.401 6.84442 118.386 17.7537 128.101C6.84442 137.815 0 151.801 0 167.346V189.35L49.2724 237.42C59.4835 247.382 73.3325 252.979 87.7734 252.979C103.708 252.979 118.043 246.301 128 235.658C137.957 246.301 152.292 252.979 168.227 252.979C182.668 252.979 196.516 247.382 206.728 237.42L256 189.35V167.346C256 151.801 249.156 137.815 238.246 128.101C249.156 118.386 256 104.401 256 88.8552V66.8517L206.728 18.7814C196.516 8.8193 182.668 3.22266 168.227 3.22266C152.292 3.22266 137.957 9.90012 128 20.5433C118.043 9.90012 103.708 3.22266 87.7734 3.22266ZM164.856 128.101C164.243 127.554 163.64 126.993 163.05 126.417L128 92.2219L92.9498 126.417C92.3597 126.993 91.7574 127.554 91.1437 128.101C91.7574 128.647 92.3597 129.208 92.9498 129.784L128 163.979L163.05 129.784C163.64 129.208 164.243 128.647 164.856 128.101ZM142.222 189.35V199.858C142.222 213.869 153.865 225.228 168.227 225.228C175.123 225.228 181.738 222.555 186.614 217.797L227.556 177.855V167.346C227.556 153.335 215.913 141.976 201.551 141.976C194.655 141.976 188.04 144.649 183.164 149.407L142.222 189.35ZM113.778 189.35L72.8365 149.407C67.9597 144.649 61.3455 141.976 54.4488 141.976C40.087 141.976 28.4444 153.335 28.4444 167.346V177.855L69.3856 217.797C74.2624 222.555 80.8768 225.228 87.7734 225.228C102.135 225.228 113.778 213.869 113.778 199.858V189.35ZM113.778 56.3434V66.8517L72.8365 106.795C67.9597 111.552 61.3455 114.225 54.4488 114.225C40.087 114.225 28.4444 102.867 28.4444 88.8552V78.3467L69.3856 38.404C74.2624 33.6462 80.8768 30.9734 87.7734 30.9734C102.135 30.9734 113.778 42.3319 113.778 56.3434ZM183.164 106.795L142.222 66.8517V56.3434C142.222 42.3319 153.865 30.9734 168.227 30.9734C175.123 30.9734 181.738 33.6462 186.614 38.404L227.556 78.3467V88.8552C227.556 102.867 215.913 114.225 201.551 114.225C194.655 114.225 188.04 111.552 183.164 106.795Z" fill="black"/>
</svg>
